<?xml version="1.0" standalone="no"?><!DOCTYPE svg PUBLIC "-//W3C//DTD SVG 1.1//EN" "http://www.w3.org/Graphics/SVG/1.1/DTD/svg11.dtd"><svg t="1669428582032" class="icon" viewBox="0 0 1024 1024" version="1.1" xmlns="http://www.w3.org/2000/svg" p-id="1921" xmlns:xlink="http://www.w3.org/1999/xlink" width="35" height="35"><path d="M268.4 287.6c24.7 0 44.8-20.1 44.8-44.8v-89.6c0-24.7-20.1-44.8-44.8-44.8s-44.8 20.1-44.8 44.8v89.6c0 24.8 20.1 44.8 44.8 44.8zM755.6 287.6c24.7 0 44.8-20.1 44.8-44.8v-89.6c0-24.7-20.1-44.8-44.8-44.8s-44.8 20.1-44.8 44.8v89.6c0 24.8 20.1 44.8 44.8 44.8z" p-id="7861" fill="#ffffff"></path><path d="M914.4 198.8H846c-0.5 0-0.8 0.4-0.8 0.8v38.5c0 47.2-34.4 89.7-81.4 93.9-53.1 4.8-97.8-37.1-97.8-89.2v-43.2c0-0.5-0.4-0.8-0.8-0.8H358.8c-0.5 0-0.8 0.4-0.8 0.8v38.5c0 47.2-34.4 89.7-81.4 93.9-53.1 4.8-97.8-37.1-97.8-89.2v-43.2c0-0.5-0.4-0.8-0.8-0.8h-68.3c-25.2 0-45.6 20.4-45.6 45.6v625.5c0 25.2 20.4 45.6 45.6 45.6h804.7c25.2 0 45.6-20.4 45.6-45.6V244.4c0-25.2-20.4-45.6-45.6-45.6zM904 803.5c0 24.8-20.1 44.8-44.8 44.8H164.8c-24.8 0-44.8-20.1-44.8-44.8V445.2c0-24.8 20.1-44.8 44.8-44.8h694.3c24.8 0 44.8 20.1 44.8 44.8v358.3z" p-id="7862" fill="#ffffff"></path><path d="M660.9 575.6c-78.5-36.8-110.9-83.4-119.7-98.3 4.6-10.9 0.1-23.6-10.6-28.8-11.1-5.4-24.5-0.8-29.9 10.3-0.4 0.7-37.5 74.3-137.7 123-11.1 5.4-15.8 18.8-10.4 29.9 3.9 8 11.9 12.6 20.2 12.6 3.3 0 6.6-0.7 9.8-2.3 66.4-32.3 108.3-73.9 132.2-104.1 19.5 26 58.1 65.8 127.3 98.2 3.1 1.4 6.3 2.1 9.5 2.1 8.4 0 16.5-4.8 20.3-12.9 5-11.1 0.2-24.4-11-29.7z" p-id="7863" fill="#ffffff"></path><path d="M521.5 619.8c4.2 3.5 9.3 5.2 14.3 5.2 6.4 0 12.8-2.7 17.2-8 7.9-9.5 6.7-23.6-2.8-31.5l-33.3-27.8c-9.5-7.9-23.6-6.7-31.5 2.8-7.9 9.5-6.7 23.6 2.8 31.5l33.3 27.8zM585 634.1H419.3c-12.4 0-22.4 10-22.4 22.4 0 12.4 10 22.4 22.4 22.4h143.3l-68.4 89.8c-7.5 9.8-5.6 23.9 4.2 31.4 4.1 3.1 8.8 4.6 13.6 4.6 6.8 0 13.4-3 17.8-8.8l81.6-107.1c7.9-10.4 9.2-24.2 3.4-35.9-5.6-11.6-17.1-18.8-29.8-18.8z" p-id="7864" fill="#ffffff"></path></svg>